# xmcd
#
# Track frame offsets: 
#        150
#        25595
#        44855
#        62749
#        84887
#        102500
#        121325
#        141560
#        160719
#        182000
#
# Disc length: 2655 seconds
#
# Revision: 5
# Processed by: cddbd v1.5.2PL0 Copyright (c) Steve Scherf et al.
# Submitted via: ExactAudioCopyFreeDBPlugin 1.0
#
DISCID=850a5d0a
DTITLE=Bruce Carroll - Speed of Light
DYEAR=1996
DGENRE=Christian
TTITLE0=Here I Go Again
TTITLE1=Speed of Light
TTITLE2=Don't Blame Love
TTITLE3=Worth It All
TTITLE4=I Want To Trust You
TTITLE5=You Can Get There From Here
TTITLE6=Rise Above It All
TTITLE7=More To Come
TTITLE8=It's Just Like Church To Me
TTITLE9=God Doesn't Know
EXTD=
EXTT0=
EXTT1=
EXTT2=
EXTT3=
EXTT4=
EXTT5=
EXTT6=
EXTT7=
EXTT8=
EXTT9=
PLAYORDER=
